<svg width="1600" height="400" viewBox="0 0 1600 400" fill="none" xmlns="http://www.w3.org/2000/svg">
  <!-- Dark background -->
  <rect width="1600" height="400" fill="#0A0A0A"/>

  <!-- Subtle grid lines across full width -->
  <line x1="0" y1="80" x2="1600" y2="80" stroke="rgba(255,255,255,0.03)" stroke-width="1"/>
  <line x1="0" y1="140" x2="1600" y2="140" stroke="rgba(255,255,255,0.03)" stroke-width="1"/>
  <line x1="0" y1="200" x2="1600" y2="200" stroke="rgba(255,255,255,0.03)" stroke-width="1"/>
  <line x1="0" y1="260" x2="1600" y2="260" stroke="rgba(255,255,255,0.03)" stroke-width="1"/>
  <line x1="0" y1="320" x2="1600" y2="320" stroke="rgba(255,255,255,0.03)" stroke-width="1"/>

  <!-- Left decorative bars (faded, background texture) -->
  <rect x="60" y="260" width="28" height="60" rx="5" fill="#FF9F43" opacity="0.08"/>
  <rect x="100" y="220" width="28" height="100" rx="5" fill="#FF9F43" opacity="0.1"/>
  <rect x="140" y="185" width="28" height="135" rx="5" fill="#FF9F43" opacity="0.12"/>
  <rect x="180" y="150" width="28" height="170" rx="5" fill="#FF9F43" opacity="0.14"/>
  <rect x="220" y="120" width="28" height="200" rx="5" fill="#FF9F43" opacity="0.16"/>

  <!-- Left trend line -->
  <polyline points="74,260 114,220 154,185 194,150 234,120" stroke="#FF9F43" stroke-width="2" stroke-linecap="round" stroke-linejoin="round" fill="none" opacity="0.15"/>

  <!-- Right decorative scatter dots (faded) -->
  <circle cx="1300" cy="180" r="5" fill="#FF9F43" opacity="0.12"/>
  <circle cx="1340" cy="220" r="5" fill="#FF9F43" opacity="0.10"/>
  <circle cx="1370" cy="160" r="5" fill="#FF9F43" opacity="0.14"/>
  <circle cx="1410" cy="240" r="5" fill="#FF9F43" opacity="0.08"/>
  <circle cx="1440" cy="190" r="5" fill="#FF9F43" opacity="0.12"/>
  <circle cx="1480" cy="140" r="5" fill="#FF9F43" opacity="0.16"/>
  <circle cx="1510" cy="210" r="5" fill="#FF9F43" opacity="0.10"/>

  <!-- Center content -->
  <!-- AI pill -->
  <rect x="688" y="100" width="110" height="42" rx="21" fill="#FF9F43" opacity="0.15"/>
  <rect x="689" y="101" width="108" height="40" rx="20" stroke="#FF9F43" stroke-width="1" opacity="0.3" fill="none"/>
  <g transform="translate(704, 108)">
    <path
      d="M12 2L14.9 8.6L22 9.5L17 14.1L18.2 21.1L12 17.6L5.8 21.1L7 14.1L2 9.5L9.1 8.6L12 2Z"
      stroke="#FF9F43"
      stroke-width="1.8"
      stroke-linecap="round"
      stroke-linejoin="round"
      fill="none"
      transform="scale(1.1)"
    />
  </g>
  <text x="752" y="128" font-family="Inter, system-ui, sans-serif" font-weight="700" font-size="20" fill="#FF9F43">AI</text>

  <!-- Title -->
  <text x="800" y="200" text-anchor="middle" font-family="Inter, system-ui, sans-serif" font-weight="900" font-size="52" letter-spacing="-0.03em" fill="white">M&#xe9;xico en Datos</text>

  <!-- Subtitle -->
  <text x="800" y="245" text-anchor="middle" font-family="Inter, system-ui, sans-serif" font-weight="400" font-size="18" fill="rgba(255,255,255,0.45)">Datos oficiales de INEGI, Banxico, CONEVAL y m&#xe1;s</text>

  <!-- URL -->
  <text x="800" y="290" text-anchor="middle" font-family="Inter, system-ui, sans-serif" font-weight="500" font-size="15" fill="#FF9F43" opacity="0.7">datamx.sebastian.mx</text>

  <!-- Bottom border accent -->
  <rect x="0" y="396" width="1600" height="4" fill="#FF9F43" opacity="0.4"/>
</svg>
